<svg xmlns="http://www.w3.org/2000/svg" xmlns:xlink="http://www.w3.org/1999/xlink" id="Camada_1" x="0px" y="0px" viewBox="0 0 128 128" style="enable-background:new 0 0 128 128;" xml:space="preserve"><style type="text/css">	.st0{fill:#5CAD49;}	.st1{fill:#FFFFFF;}</style><circle class="st0" cx="63.75" cy="64.38" r="60.82"></circle><g>	<g>		<polygon class="st1" points="21.89,26.68 21.89,31.05 21.93,31.05 24.86,28 24.9,28 24.9,47.05 29.08,47.05 29.08,22.17    25.74,22.17   "></polygon>	</g>	<g>		<g>			<path class="st1" d="M39.03,30.06c-1.65,0-2.86,0.59-3.52,1.72h-0.04v-6.2h7.19v-3.41H31.65v14.02h3.81v-0.55    c0-1.47,0.66-2.27,1.84-2.27c1.29,0,1.8,0.88,1.8,2.24v6.02c0,1.32-0.48,2.24-1.76,2.24c-1.43,0-1.94-0.95-1.94-2.42v-3.12h-3.82    v2.83c0,3.78,1.5,6.2,5.76,6.2c4.22,0,5.94-2.24,5.94-5.69v-6.09C43.28,31.64,41.26,30.06,39.03,30.06"></path>		</g>		<g>			<path class="st1" d="M54.03,88c0.14,0,0.25,0.11,0.25,0.25v8.13c0,0.14-0.11,0.25-0.25,0.25h-3.29c-0.14,0-0.25-0.11-0.25-0.25    v-8.13c0-0.14,0.11-0.25,0.25-0.25H54.03z"></path>		</g>		<g>			<path class="st1" d="M90.16,100.12H35.94c-0.13,0-0.25,0.12-0.25,0.25v3.31c0,0.13,0.11,0.24,0.25,0.24l54.22,0    c0.13,0,0.25-0.11,0.25-0.24v-3.31C90.41,100.23,90.29,100.12,90.16,100.12"></path>		</g>		<g>			<path class="st1" d="M90.16,106.7H35.94c-0.13,0-0.25,0.11-0.25,0.24v3.32c0,0.13,0.11,0.24,0.25,0.24h54.22    c0.13,0,0.25-0.11,0.25-0.24v-3.32C90.41,106.81,90.29,106.7,90.16,106.7"></path>		</g>		<g>			<path class="st1" d="M79.84,79c-0.68-0.53-2.49-1.77-4.69-1.77c-1.58,0-3.04,0.62-4.35,1.85c-0.09,0.09-0.15,0.21-0.15,0.34v0.3    c0,0.15,0.05,0.28,0.16,0.37c0.12,0.09,0.24,0.12,0.38,0.09c0.03,0,0.07-0.01,0.1-0.03c0.1-0.04,0.19-0.1,0.27-0.17    c0.29-0.19,1.06-0.45,2.17-0.45c1.15,0,3.41,0.31,5.59,2.34l0.05,0.05c0.12,0.13,0.29,0.2,0.47,0.2c0.17,0,0.35-0.07,0.46-0.19    l0.04-0.05c2.19-2.04,4.45-2.34,5.59-2.34c1.12,0,1.89,0.26,2.18,0.45c0.08,0.08,0.17,0.14,0.3,0.18    c0.05,0.01,0.19,0.04,0.32,0.01c0.2-0.06,0.34-0.24,0.34-0.45v-0.26c0-0.12-0.05-0.25-0.14-0.34c-1.33-1.26-2.81-1.9-4.41-1.9    C82.34,77.23,80.54,78.45,79.84,79"></path>		</g>		<g>			<path class="st1" d="M76.48,57.39c-0.12,0.05-0.2,0.16-0.24,0.29l-0.05,0.18c-0.04,0.14-0.01,0.29,0.07,0.41    c0.08,0.11,0.2,0.18,0.34,0.18c0.02,0,0.05,0.01,0.07,0c0.09,0,0.18-0.02,0.26-0.07c0.05-0.01,0.15-0.04,0.33-0.04    c0.24,0,2.43,0.07,3.87,2.53l0.02,0.04c0.08,0.14,0.2,0.24,0.35,0.28c0.04,0.01,0.12,0.03,0.17,0.03c0.1,0,0.2-0.03,0.27-0.07    l0.04-0.02c0.79-0.4,1.61-0.6,2.42-0.6c1.37,0,2.26,0.56,2.47,0.79c0.04,0.08,0.11,0.15,0.18,0.2c0.05,0.03,0.13,0.07,0.18,0.09    c0.03,0,0.05,0.01,0.08,0.01c0.01,0,0.03,0,0.05,0c0.07,0,0.14-0.02,0.21-0.05c0.11-0.06,0.19-0.16,0.23-0.28l0.05-0.16    c0.01-0.04,0.02-0.09,0.02-0.13c0-0.08-0.02-0.17-0.06-0.23c-1.05-1.83-2.58-2.21-3.68-2.21c-0.82,0-1.53,0.21-1.95,0.37    c-0.5-0.67-1.75-2.05-3.66-2.05C77.84,56.87,77.16,57.05,76.48,57.39"></path>		</g>		<g>			<path class="st1" d="M65.02,65.73l0.02,0.24c0.01,0.15,0.09,0.28,0.22,0.37c0.11,0.07,0.24,0.09,0.36,0.06    c0.03-0.01,0.06-0.02,0.08-0.02c0.09-0.04,0.17-0.1,0.23-0.17c0.23-0.17,0.97-0.47,2.07-0.47c1.05,0,2.65,0.28,4.29,1.62    l0.04,0.04c0.12,0.1,0.27,0.16,0.42,0.16h0.04c0.17-0.01,0.33-0.09,0.43-0.2l0.04-0.04c1.81-1.91,3.75-2.2,4.75-2.2    c0.71,0,1.22,0.15,1.41,0.26c0.08,0.06,0.17,0.12,0.28,0.15c0.03,0.01,0.11,0.02,0.2,0.01c0.04,0,0.08-0.02,0.11-0.03    c0.19-0.07,0.32-0.26,0.31-0.47l-0.01-0.21c-0.01-0.13-0.07-0.24-0.16-0.32c-1.08-0.91-2.24-1.37-3.47-1.37    c-1.91,0-3.43,1.13-4.06,1.68c-0.58-0.39-1.98-1.2-3.62-1.2c-1.44,0-2.74,0.6-3.85,1.78C65.06,65.48,65.01,65.6,65.02,65.73"></path>		</g>		<g>			<path class="st1" d="M37.58,70.08c0-3.25,2.63-5.88,5.88-5.88c0.13,0,0.25,0.01,0.38,0.02c0.31-4.11,3.73-7.35,7.92-7.35    c4.39,0,7.95,3.56,7.95,7.95c0,1.24-0.3,2.42-0.81,3.47c3.98,0.88,6.96,4.43,6.96,8.67c0,4.91-3.98,8.89-8.89,8.89    c-0.36,0-11.86-0.07-11.86-0.07c-3.48,0-6.29-2.82-6.29-6.29c0-1.67,0.65-3.18,1.72-4.31C38.77,74.17,37.58,72.27,37.58,70.08"></path>		</g>	</g>	<g>		<path class="st1" d="M57.73,22.17l-1.92,10.09h-1.84l-1.92-10.09h1.73l1.16,7.04h0.01l1.19-7.04H57.73z"></path>		<path class="st1" d="M58.58,22.17h1.7v10.09h-1.7V22.17z"></path>		<path class="st1" d="M66.48,24.88v4.67c0,1.55-0.64,2.71-2.45,2.71h-2.62V22.17h2.62C65.84,22.17,66.48,23.32,66.48,24.88z    M63.82,30.87c0.7,0,0.97-0.42,0.97-1.03v-5.28c0-0.59-0.27-1.01-0.97-1.01H63.1v7.32H63.82z"></path>		<path class="st1" d="M67.33,32.26l1.9-10.09h1.93l1.92,10.09h-1.74l-0.31-1.84h-1.8l-0.3,1.84H67.33z M69.46,29.06h1.35   l-0.67-4.05h-0.01L69.46,29.06z"></path>	</g>	<g>		<path class="st1" d="M52.1,36.99h4.51v1.38h-1.4v8.7h-1.71v-8.7h-1.4V36.99z"></path>		<path class="st1" d="M57.36,36.99h4.05v1.38h-2.35v2.89h1.68v1.37h-1.68v3.06h2.35v1.38h-4.05V36.99z"></path>		<path class="st1" d="M63.98,42.45v4.63h-1.7V36.99h2.47c1.71,0,2.34,0.85,2.34,2.26v1.29c0,1.09-0.39,1.73-1.35,1.95l1.62,4.58   h-1.78L63.98,42.45z M63.98,38.37v3.14h0.56c0.58,0,0.83-0.3,0.83-0.83v-1.49c0-0.55-0.25-0.82-0.83-0.82H63.98z"></path>		<path class="st1" d="M69.66,42.45v4.63h-1.7V36.99h2.47c1.71,0,2.34,0.85,2.34,2.26v1.29c0,1.09-0.39,1.73-1.35,1.95l1.62,4.58   h-1.78L69.66,42.45z M69.66,38.37v3.14h0.56c0.58,0,0.83-0.3,0.83-0.83v-1.49c0-0.55-0.25-0.82-0.83-0.82H69.66z"></path>		<path class="st1" d="M73.67,36.99h4.05v1.38h-2.35v2.89h1.68v1.37h-1.68v3.06h2.35v1.38h-4.05V36.99z"></path>		<path class="st1" d="M78.5,44.9v-1.35h1.58v1.38c0,0.57,0.25,0.89,0.83,0.89c0.54,0,0.77-0.36,0.77-0.89v-0.39   c0-0.58-0.24-0.94-0.76-1.43l-1-1c-0.97-0.95-1.41-1.53-1.41-2.69v-0.34c0-1.25,0.73-2.22,2.38-2.22c1.7,0,2.37,0.83,2.37,2.29   v0.82h-1.55V39.1c0-0.58-0.27-0.86-0.8-0.86c-0.48,0-0.8,0.27-0.8,0.83v0.21c0,0.57,0.31,0.89,0.8,1.37L82,41.72   c0.92,0.94,1.37,1.5,1.37,2.62v0.49c0,1.38-0.74,2.37-2.47,2.37C79.17,47.19,78.5,46.22,78.5,44.9z"></path>		<path class="st1" d="M84.02,36.99h4.51v1.38h-1.4v8.7h-1.71v-8.7h-1.4V36.99z"></path>		<path class="st1" d="M90.98,42.45v4.63h-1.7V36.99h2.47c1.71,0,2.34,0.85,2.34,2.26v1.29c0,1.09-0.39,1.73-1.35,1.95l1.62,4.58   h-1.79L90.98,42.45z M90.98,38.37v3.14h0.56c0.58,0,0.83-0.3,0.83-0.83v-1.49c0-0.55-0.25-0.82-0.83-0.82H90.98z"></path>		<path class="st1" d="M94.97,36.99h4.05v1.38h-2.35v2.89h1.68v1.37h-1.68v3.06h2.35v1.38h-4.05V36.99z"></path>	</g></g></svg>