<svg xmlns="http://www.w3.org/2000/svg" xmlns:xlink="http://www.w3.org/1999/xlink" id="Camada_1" x="0px" y="0px" viewBox="0 0 128 128" style="enable-background:new 0 0 128 128;" xml:space="preserve"><style type="text/css">	.st0{fill:#417C44;}	.st1{fill:#FFFFFF;}</style><circle class="st0" cx="63.75" cy="64.38" r="60.82"></circle><g>	<g>		<polygon class="st1" points="23.29,25.11 23.29,47.08 19.6,47.08 19.6,30.26 19.56,30.26 16.97,32.95 16.94,32.95 16.94,29.09    20.34,25.11   "></polygon>	</g>	<g>		<g>			<path class="st1" d="M35.47,29.87v1.91c0,1.85-1,3.08-2.53,3.56c1.85,0.42,2.72,1.72,2.72,3.73v3.24c0,3.05-1.62,5.02-5.35,5.02    c-3.76,0-5.09-2.14-5.09-5.48v-2.88h3.37v3.14c0,1.3,0.45,2.14,1.72,2.14c1.13,0,1.65-0.81,1.65-1.98v-3.63    c0-1.17-0.52-1.78-1.81-1.78H28.6v-2.82H30c1.2,0,1.97-0.62,1.97-1.78V29.9c0-1.2-0.42-1.98-1.59-1.98    c-1.16,0-1.59,0.78-1.59,2.14v2.24h-3.37v-1.94c0-3.24,1.33-5.51,5.15-5.51C33.98,24.85,35.47,26.76,35.47,29.87"></path>		</g>		<g>			<path class="st1" d="M103.86,87.21c-2.87-4.03-15.86-20.11-40.01-20.11c-24.15,0-37.14,16.08-40.01,20.11    c-0.12,0.17-0.23,0.32-0.31,0.45c0.09,0.13,0.19,0.28,0.31,0.45c2.88,4.03,15.86,20.11,40.01,20.11    c24.15,0,37.14-16.08,40.01-20.11c0.13-0.17,0.23-0.32,0.31-0.45C104.08,87.53,103.98,87.38,103.86,87.21 M50.38,77.26    c0.22-0.32,0.94-1.23,1.03-1.35c0.19-0.24,0.56-0.29,0.82-0.33c0.26-0.05,0.6,0.1,0.64,0.29c0.04,0.19-0.1,0.94-0.23,1.07    c-0.35,0.37-1.28,0.89-1.78,0.81C50.46,77.68,50.3,77.38,50.38,77.26 M49.51,78.98c0.04-0.05,0.07-0.08,0.09-0.1    c0.3-0.35,0.91-0.42,1.33-0.49c0.42-0.07,0.98,0.14,1.04,0.42c0.07,0.28-1.05,0.78-1.25,0.97c-0.58,0.53-1.49,1.63-2.02,1.74    c-0.17,0.04-0.32,0.01-0.43-0.05C48.61,80.61,49.03,79.77,49.51,78.98 M58.55,97.52c-0.33,1.29-0.71,1.75-1.03,2.16    c-0.33,0.41-1.53,0.93-2.29,0.88c-0.77-0.06-0.87-2.1-0.87-3.15c0-0.36-0.51,0.71-0.78-1.47c-0.17-1.4-1.07,0.15-1.13-0.79    c-0.06-0.93-0.51-0.75-0.98-1.33c-0.47-0.58-1.05,0.06-1.71,0.35c-0.65,0.29-0.38,0.44-1.31,0.15c-0.02-0.01-0.04-0.01-0.06-0.02    c-0.85-2.01-1.32-4.22-1.32-6.55c0-0.57,0.03-1.13,0.08-1.68c0.03-0.06,0.06-0.11,0.1-0.16c0.89-1.05,0.87-1.3,0.87-1.3    l0.98-0.34c0,0,1.57,0.24,2.76,0.69c0.97,0.36,2.51,1.19,3.4,0.83c0.64-0.27,1.15-0.62,1.09-1.16c-0.07-0.67-0.6-0.84-1.25-0.38    c-0.24,0.17-0.74-1.02-1.14-0.96c-0.4,0.06,0.49,1.39,0.15,1.45c-0.34,0.06-1.02-1.39-1.13-1.62c-0.11-0.23-0.64-0.81-1.11-0.37    c-0.99,0.94-2.6,0.88-2.93,1.13c-0.99,0.74-1.25-0.24-1.22-0.84c0.04-0.14,0.08-0.27,0.12-0.41c0.32-0.35,1.48-0.47,1.87-0.21    c0.44,0.29,0.75-0.07,0.92-0.25c0.17-0.17,0.11-0.45,0-0.68c-0.11-0.23,0.22-0.41,0.44-0.46c0.23-0.06,0.98-0.59,1.28-0.76    c0.3-0.17,1.86-0.36,2.55-0.01c0.7,0.35,1.34,0.06,1.68-0.34c0.43-0.51,0.98-0.9,1.22-1.02c0.24-0.11-0.6-0.9-1.29-0.04    c-0.7,0.85-1.05,0.93-1.38,0.93s-2.27-0.48-2.51-1.1c-0.24-0.61,0.61-1.07,1.32-1.42c0.72-0.34,2.68-0.34,3.18-0.45    c1.02-0.22,2.32-0.74,2.98-0.29c0.65,0.44-2.74,1.21-1.63,1.81c0.4,0.22,2.19-1.03,2.81-1.35c1.45-0.75-1.4-0.99-1.03-2.51    c0.42-1.71-3.5-1.05-5.45-0.91c2.62-1.68,5.72-2.65,9.06-2.65c7.94,0,14.58,5.5,16.36,12.89c0.01,0.37-0.04,0.63-0.08,0.78    c-0.15,0.61-1.3,1.13-1.97,0.15c-0.17-0.25-0.89-0.93-0.87,0.24c0.02,1.17,1.13,1.28,0.06,1.99c-1.07,0.7-1.27,0.53-1.77,0.71    c-0.49,0.18-0.98,1.38-0.86,2.02c0.12,0.64,1.65,2.4,0.51,2.32c-0.27-0.02-2.28-1.39-2.61-2.28c-0.35-0.93-0.73-1.84-1-2.54    c-0.27-0.7-0.98-0.88-1.58-0.47c-0.6,0.41,0.17,0.82-0.26,1.7c-0.43,0.87-0.74,1.66-1.37,0.93c-1.64-1.88-4.03-0.95-4.4-3.05    c-0.2-1.14-1.18-1.03-2-1.67c-0.82-0.64-1.28-0.99-1.42-0.52c-0.12,0.41,2.57,2.54,2.76,3.09c0.29,0.81-0.81,1.53-1.61,1.72    c-0.8,0.19-1.15-0.45-1.93-1.26c-0.78-0.81-1.13-1.4-1.18-0.76c-0.08,0.93,0.74,2.28,1.54,2.79c0.68,0.43,1.44,0.63,1.22,1.33    c-0.22,0.7,0,0.3-0.77,1.06c-0.76,0.76-0.91,1-0.85,2.05c0.06,1.05-0.22,1.11-0.38,1.98C59.26,97,58.88,96.24,58.55,97.52     M76.6,90.81c0.57-0.05,1.41,0.74,1.08,1.04c-0.33,0.3-1.18,0.19-1.6-0.15C75.65,91.38,76.34,90.83,76.6,90.81 M75.88,90.3    c-0.18-0.07-0.34-0.24-0.48-0.65c-0.14-0.41,0.21-0.65,0.55-0.48c0.35,0.18,0.79,0.69,0.79,0.97    C76.75,90.4,76.07,90.37,75.88,90.3 M68.46,90.27c-0.33,0.3-1.18,0.19-1.61-0.14c-0.42-0.33,0.27-0.87,0.52-0.9    C67.94,89.18,68.79,89.97,68.46,90.27 M61.59,93.61c-0.23,0.38-0.86,3.21-1.29,2.88c-0.43-0.33,0.17-3.28,0.3-3.51    C61.26,91.76,62.7,91.82,61.59,93.61 M63.88,104.57c-1.64,0-3.23-0.24-4.73-0.68c-0.22-0.18-0.34-0.47-0.2-0.82    c0.52-1.36,2.07-1.89,3.29-2.01c2.73-0.27,6.31,1.77,6.88,1.44c0.57-0.33,1.73-1.83,3.42-1.76c1.16,0.04,1.15,0.24,1.53,0.38    C71.24,103.28,67.71,104.57,63.88,104.57 M75.74,99.67c-0.17-0.05-0.34-0.1-0.53-0.2c-0.92-0.47-0.81,0.28-1.26,0.12    c-0.45-0.17,0.51-1.22-0.85-0.33c-1.35,0.88-0.99-0.14-1.58-1.63c-0.6-1.5,0.68-3.21,1.74-3.6c1.46-0.53,2.37-0.64,3.05-0.81    c2.02-0.5,2.45-1.7,2.81-0.97c0.07,0.14,0.14,0.27,0.2,0.39c0.12,0.22,0.25,0.66,0.26,1.1C78.74,95.99,77.41,98.01,75.74,99.67     M80.35,91.18c-0.45-0.12-2.34-2.73-0.85-4.45c0.25-0.28-0.5-1.11-0.3-1.13c0.82-0.06,1.25,0.44,1.47,1.18    c0.02,0.32,0.03,0.65,0.03,0.98C80.7,88.92,80.58,90.07,80.35,91.18"></path>		</g>	</g>	<g>		<path class="st1" d="M44.06,34.15l1.72-9.09h1.74l1.73,9.09h-1.57l-0.28-1.66h-1.62l-0.27,1.66H44.06z M45.97,31.27h1.22   l-0.6-3.65h-0.01L45.97,31.27z"></path>		<path class="st1" d="M51.65,35.08c0.43-0.01,0.5-0.11,0.5-0.22c0-0.09-0.08-0.15-0.21-0.15h-0.07v-0.5   c-1.3-0.16-1.84-1.14-1.84-2.41v-4.4c0-1.42,0.67-2.45,2.28-2.45c1.69,0,2.16,0.94,2.16,2.28v1.07h-1.39v-1.19   c0-0.56-0.19-0.89-0.74-0.89s-0.78,0.39-0.78,0.94v4.88c0,0.55,0.23,0.94,0.78,0.94s0.74-0.35,0.74-0.88v-1.68h1.39v1.57   c0,1.27-0.51,2.21-2.03,2.27v0.12C52.8,34.44,53,34.57,53,34.86c0,0.42-0.39,0.64-1.35,0.64V35.08z"></path>		<path class="st1" d="M55.2,34.15l1.72-9.09h1.74l1.73,9.09h-1.57l-0.28-1.66h-1.62l-0.27,1.66H55.2z M56.4,24.7   c0.03-0.63,0.27-1.14,0.94-1.14c0.39,0,0.71,0.23,0.91,0.23c0.11,0,0.19-0.07,0.19-0.2h0.75c-0.03,0.63-0.27,1.14-0.94,1.14   c-0.39,0-0.71-0.23-0.91-0.23c-0.11,0-0.19,0.07-0.19,0.2H56.4z M57.12,31.27h1.22l-0.6-3.65h-0.01L57.12,31.27z"></path>		<path class="st1" d="M61.17,31.81v-4.4c0-1.42,0.7-2.45,2.31-2.45c1.62,0,2.32,1.03,2.32,2.45v4.4c0,1.41-0.7,2.45-2.32,2.45   C61.87,34.26,61.17,33.22,61.17,31.81z M64.27,32.05v-4.88c0-0.55-0.24-0.94-0.79-0.94c-0.54,0-0.78,0.39-0.78,0.94v4.88   c0,0.55,0.24,0.94,0.78,0.94C64.03,32.99,64.27,32.6,64.27,32.05z"></path>		<path class="st1" d="M68.36,31.81v-4.4c0-1.42,0.67-2.45,2.28-2.45c1.69,0,2.16,0.94,2.16,2.28v1.07H71.4v-1.19   c0-0.56-0.19-0.89-0.74-0.89c-0.55,0-0.78,0.39-0.78,0.94v4.88c0,0.55,0.23,0.94,0.78,0.94c0.55,0,0.74-0.35,0.74-0.88v-1.68h1.39   v1.57c0,1.3-0.54,2.27-2.16,2.27C69.03,34.26,68.36,33.22,68.36,31.81z"></path>		<path class="st1" d="M73.78,31.81v-4.4c0-1.42,0.7-2.45,2.31-2.45c1.62,0,2.32,1.03,2.32,2.45v4.4c0,1.41-0.7,2.45-2.32,2.45   C74.47,34.26,73.78,33.22,73.78,31.81z M76.87,32.05v-4.88c0-0.55-0.24-0.94-0.79-0.94c-0.54,0-0.78,0.39-0.78,0.94v4.88   c0,0.55,0.24,0.94,0.78,0.94C76.63,32.99,76.87,32.6,76.87,32.05z"></path>		<path class="st1" d="M80.71,28.44v5.71h-1.29v-9.09h1.5l1.65,5.22v-5.22h1.27v9.09h-1.34L80.71,28.44z"></path>		<path class="st1" d="M84.69,25.06h4.06v1.25H87.5v7.85h-1.54v-7.85h-1.26V25.06z"></path>		<path class="st1" d="M91.14,29.98v4.17h-1.53v-9.09h2.23c1.54,0,2.11,0.76,2.11,2.04v1.17c0,0.98-0.35,1.56-1.22,1.76l1.46,4.13   h-1.61L91.14,29.98z M91.14,26.31v2.83h0.51c0.52,0,0.75-0.27,0.75-0.75v-1.34c0-0.5-0.23-0.74-0.75-0.74H91.14z"></path>		<path class="st1" d="M94.68,34.15l1.72-9.09h1.74l1.73,9.09h-1.57l-0.28-1.66H96.4l-0.27,1.66H94.68z M96.6,31.27h1.22l-0.6-3.65   h-0.01L96.6,31.27z"></path>		<path class="st1" d="M101.97,34.15l1.72-9.09h1.74l1.73,9.09h-1.57l-0.28-1.66h-1.62l-0.27,1.66H101.97z M103.88,31.27h1.22   l-0.6-3.65h-0.01L103.88,31.27z"></path>	</g>	<g>		<path class="st1" d="M48.48,41.15h-0.04l-1.03,5.9H46.7l-1.14-5.9h-0.03v5.9h-1.26v-9.09h1.78l0.99,5.12h0.01l0.88-5.12h1.93v9.09   h-1.39V41.15z"></path>		<path class="st1" d="M54.99,37.96v6.88c0,1.41-0.6,2.32-2.16,2.32c-1.61,0-2.28-0.91-2.28-2.32v-6.88h1.53v7.03   c0,0.54,0.21,0.9,0.75,0.9c0.54,0,0.75-0.36,0.75-0.9v-7.03H54.99z"></path>		<path class="st1" d="M60.23,40.4v4.21c0,1.39-0.58,2.44-2.21,2.44h-2.36v-9.09h2.36C59.65,37.96,60.23,39,60.23,40.4z    M57.83,45.81c0.63,0,0.87-0.38,0.87-0.93v-4.76c0-0.54-0.24-0.91-0.87-0.91h-0.64v6.6H57.83z"></path>		<path class="st1" d="M60.66,47.06l1.72-9.09h1.74l1.73,9.09h-1.57L64,45.39h-1.62l-0.27,1.66H60.66z M62.58,44.17h1.22l-0.6-3.65   h-0.01L62.58,44.17z"></path>		<path class="st1" d="M67.57,41.34v5.71h-1.29v-9.09h1.5l1.65,5.22v-5.22h1.27v9.09h-1.34L67.57,41.34z"></path>		<path class="st1" d="M73,47.98c0.43-0.01,0.5-0.11,0.5-0.21c0-0.09-0.08-0.15-0.21-0.15h-0.07v-0.5c-1.3-0.16-1.84-1.14-1.84-2.41   v-4.4c0-1.42,0.67-2.45,2.28-2.45c1.69,0,2.16,0.94,2.16,2.28v1.07h-1.39v-1.19c0-0.56-0.19-0.88-0.74-0.88   c-0.55,0-0.78,0.39-0.78,0.94v4.88c0,0.55,0.23,0.94,0.78,0.94c0.55,0,0.74-0.35,0.74-0.89v-1.68h1.39v1.57   c0,1.27-0.51,2.21-2.02,2.27v0.12c0.36,0.05,0.56,0.19,0.56,0.48c0,0.42-0.39,0.64-1.35,0.64V47.98z"></path>		<path class="st1" d="M76.2,47.06l1.72-9.09h1.74l1.73,9.09h-1.57l-0.28-1.66h-1.62l-0.27,1.66H76.2z M78.12,44.17h1.22l-0.6-3.65   h-0.01L78.12,44.17z"></path>		<path class="st1" d="M85.34,42.2h2.17v4.85h-1.1v-0.99c-0.2,0.68-0.63,1.1-1.46,1.1c-1.31,0-1.92-1.05-1.92-2.45v-4.4   c0-1.42,0.68-2.45,2.29-2.45c1.69,0,2.19,0.94,2.19,2.28v0.8h-1.39v-0.93c0-0.56-0.21-0.88-0.76-0.88c-0.55,0-0.79,0.39-0.79,0.94   v4.88c0,0.55,0.23,0.94,0.75,0.94c0.5,0,0.75-0.28,0.75-0.87v-1.61h-0.72V42.2z"></path>		<path class="st1" d="M88.18,37.96h1.53v7.85h1.82v1.25h-3.35V37.96z"></path>		<path class="st1" d="M92.03,44.71v-4.4c0-1.42,0.7-2.45,2.31-2.45c1.62,0,2.32,1.03,2.32,2.45v4.4c0,1.41-0.7,2.45-2.32,2.45   C92.73,47.16,92.03,46.12,92.03,44.71z M95.13,44.95v-4.88c0-0.55-0.24-0.94-0.79-0.94c-0.54,0-0.78,0.39-0.78,0.94v4.88   c0,0.55,0.24,0.94,0.78,0.94C94.89,45.89,95.13,45.5,95.13,44.95z"></path>		<path class="st1" d="M97.33,37.96h2.21c1.53,0,2.04,0.71,2.04,2v0.93c0,0.76-0.28,1.25-0.91,1.45c0.76,0.17,1.14,0.68,1.14,1.51   v1.21c0,1.29-0.58,2-2.11,2h-2.37V37.96z M98.86,41.8h0.54c0.5,0,0.72-0.25,0.72-0.74v-1.11c0-0.5-0.23-0.74-0.74-0.74h-0.52V41.8   z M98.86,42.97v2.84h0.67c0.51,0,0.75-0.25,0.75-0.74V43.7c0-0.48-0.23-0.74-0.76-0.74H98.86z"></path>		<path class="st1" d="M102.13,47.06l1.72-9.09h1.74l1.73,9.09h-1.57l-0.28-1.66h-1.62l-0.27,1.66H102.13z M104.05,44.17h1.22   l-0.6-3.65h-0.01L104.05,44.17z"></path>		<path class="st1" d="M107.75,37.96h1.53v7.85h1.82v1.25h-3.35V37.96z"></path>	</g>	<g>		<path class="st1" d="M48.84,52.6v4.21c0,1.39-0.58,2.44-2.21,2.44h-2.36v-9.09h2.36C48.27,50.15,48.84,51.19,48.84,52.6z    M46.44,58c0.63,0,0.87-0.38,0.87-0.93v-4.76c0-0.54-0.24-0.91-0.87-0.91H45.8V58H46.44z"></path>		<path class="st1" d="M49.52,56.9v-4.4c0-1.42,0.7-2.45,2.31-2.45c1.62,0,2.32,1.03,2.32,2.45v4.4c0,1.41-0.7,2.45-2.32,2.45   C50.21,59.35,49.52,58.31,49.52,56.9z M52.61,57.14v-4.88c0-0.55-0.24-0.94-0.79-0.94c-0.54,0-0.78,0.39-0.78,0.94v4.88   c0,0.55,0.24,0.94,0.78,0.94C52.37,58.08,52.61,57.69,52.61,57.14z"></path>		<path class="st1" d="M56.02,56.9v-4.4c0-1.42,0.67-2.45,2.28-2.45c1.69,0,2.16,0.94,2.16,2.28v1.07h-1.39v-1.19   c0-0.56-0.19-0.88-0.74-0.88c-0.55,0-0.78,0.39-0.78,0.94v4.88c0,0.55,0.23,0.94,0.78,0.94c0.55,0,0.74-0.35,0.74-0.88v-1.68h1.39   v1.57c0,1.3-0.54,2.27-2.16,2.27C56.69,59.35,56.02,58.31,56.02,56.9z"></path>		<path class="st1" d="M61.09,50.15h1.53V58h1.82v1.25h-3.35V50.15z"></path>		<path class="st1" d="M64.94,50.15h1.53v9.09h-1.53V50.15z"></path>		<path class="st1" d="M71.36,53.35h-0.04l-1.03,5.9h-0.71l-1.14-5.9h-0.03v5.9h-1.26v-9.09h1.78l0.99,5.12h0.01l0.88-5.12h1.93   v9.09h-1.39V53.35z"></path>		<path class="st1" d="M73.19,59.25l1.72-9.09h1.74l1.73,9.09h-1.57l-0.28-1.66H74.9l-0.27,1.66H73.19z M75.1,56.36h1.22l-0.6-3.65   h-0.01L75.1,56.36z"></path>	</g></g></svg>