<svg xmlns="http://www.w3.org/2000/svg" xmlns:xlink="http://www.w3.org/1999/xlink" id="Camada_1" x="0px" y="0px" viewBox="0 0 128 128" style="enable-background:new 0 0 128 128;" xml:space="preserve"><style type="text/css">	.st0{fill:#ED962F;}	.st1{fill:#FFFFFF;}</style><circle class="st0" cx="63.75" cy="64.38" r="60.82"></circle><g>	<polygon class="st1" points="16.7,27.46 16.7,31.61 16.74,31.61 19.53,28.71 19.57,28.71 19.57,46.85 23.55,46.85 23.55,23.16   20.37,23.16  "></polygon></g><g>	<polygon class="st1" points="25.79,27.46 25.79,31.61 25.82,31.61 28.62,28.71 28.65,28.71 28.65,46.85 32.64,46.85 32.64,23.16   29.46,23.16  "></polygon></g><g>	<g>		<path class="st1" d="M31.39,96.95h0.15h14.13c0.19,0,0.35-0.16,0.35-0.35c0-0.09-0.04-0.17-0.09-0.23l-0.02-0.02l-7.1-9.19   l-0.07-0.08c-0.06-0.07-0.16-0.11-0.26-0.11c-0.09,0-0.17,0.04-0.23,0.09l-0.04,0.05l-0.07,0.07l-6.93,9.09L31.1,96.4   c-0.04,0.05-0.06,0.12-0.06,0.2C31.04,96.79,31.19,96.95,31.39,96.95"></path>	</g>	<g>		<path class="st1" d="M45.61,98.24h-14.3c-0.19,0-0.35,0.16-0.35,0.35v11.19c0,0.19,0.16,0.35,0.35,0.35h4.6v-7.04   c0-0.19,0.16-0.35,0.35-0.35h4.27c0.19,0,0.35,0.16,0.35,0.35v7.04h4.72c0.19,0,0.35-0.16,0.35-0.35V98.6   C45.97,98.4,45.81,98.24,45.61,98.24"></path>	</g>	<g>		<path class="st1" d="M95.04,95.32H80.89c-0.19,0-0.35,0.15-0.35,0.34v14.29c0,0.19,0.15,0.34,0.35,0.34h14.15   c0.19,0,0.35-0.15,0.35-0.34V95.65C95.39,95.46,95.23,95.32,95.04,95.32 M87.3,104.65c0,0.19-0.15,0.34-0.35,0.34h-4.23   c-0.19,0-0.35-0.15-0.35-0.34v-2.57c0-0.19,0.15-0.34,0.35-0.34h4.23c0.19,0,0.35,0.15,0.35,0.34V104.65z M87.3,99.9   c0,0.19-0.15,0.34-0.35,0.34h-4.23c-0.19,0-0.35-0.15-0.35-0.34v-2.57c0-0.19,0.15-0.34,0.35-0.34h4.23   c0.19,0,0.35,0.15,0.35,0.34V99.9z M93.76,104.65c0,0.19-0.15,0.34-0.35,0.34h-4.23c-0.19,0-0.35-0.15-0.35-0.34v-2.57   c0-0.19,0.15-0.34,0.35-0.34h4.23c0.19,0,0.35,0.15,0.35,0.34V104.65z M93.76,99.9c0,0.19-0.15,0.34-0.35,0.34h-4.23   c-0.19,0-0.35-0.15-0.35-0.34v-2.57c0-0.19,0.15-0.34,0.35-0.34h4.23c0.19,0,0.35,0.15,0.35,0.34V99.9z"></path>	</g>	<g>		<path class="st1" d="M62.14,62.14H48.29c-0.19,0-0.34,0.15-0.34,0.34v47.34c0,0.19,0.15,0.34,0.34,0.34h13.85   c0.19,0,0.34-0.15,0.34-0.34V62.48C62.48,62.29,62.32,62.14,62.14,62.14 M53.9,104.76c0,0.1-0.08,0.18-0.18,0.18h-3.17   c-0.1,0-0.18-0.08-0.18-0.18v-3.54c0-0.1,0.08-0.18,0.18-0.18h3.17c0.1,0,0.18,0.08,0.18,0.18V104.76z M53.9,96.65   c0,0.1-0.08,0.18-0.18,0.18h-3.17c-0.1,0-0.18-0.08-0.18-0.18v-3.53c0-0.1,0.08-0.18,0.18-0.18h3.17c0.1,0,0.18,0.08,0.18,0.18   V96.65z M53.9,88.53c0,0.1-0.08,0.18-0.18,0.18h-3.17c-0.1,0-0.18-0.08-0.18-0.18v-3.54c0-0.1,0.08-0.18,0.18-0.18h3.17   c0.1,0,0.18,0.08,0.18,0.18V88.53z M53.9,80.41c0,0.1-0.08,0.18-0.18,0.18h-3.17c-0.1,0-0.18-0.08-0.18-0.18v-3.54   c0-0.1,0.08-0.18,0.18-0.18h3.17c0.1,0,0.18,0.08,0.18,0.18V80.41z M53.9,72.3c0,0.1-0.08,0.18-0.18,0.18h-3.17   c-0.1,0-0.18-0.08-0.18-0.18v-3.54c0-0.1,0.08-0.18,0.18-0.18h3.17c0.1,0,0.18,0.08,0.18,0.18V72.3z M60.12,104.76   c0,0.1-0.08,0.18-0.18,0.18h-3.17c-0.1,0-0.18-0.08-0.18-0.18v-3.54c0-0.1,0.08-0.18,0.18-0.18h3.17c0.1,0,0.18,0.08,0.18,0.18   V104.76z M60.12,96.65c0,0.1-0.08,0.18-0.18,0.18h-3.17c-0.1,0-0.18-0.08-0.18-0.18v-3.53c0-0.1,0.08-0.18,0.18-0.18h3.17   c0.1,0,0.18,0.08,0.18,0.18V96.65z M60.12,88.53c0,0.1-0.08,0.18-0.18,0.18h-3.17c-0.1,0-0.18-0.08-0.18-0.18v-3.54   c0-0.1,0.08-0.18,0.18-0.18h3.17c0.1,0,0.18,0.08,0.18,0.18V88.53z M60.12,80.41c0,0.1-0.08,0.18-0.18,0.18h-3.17   c-0.1,0-0.18-0.08-0.18-0.18v-3.54c0-0.1,0.08-0.18,0.18-0.18h3.17c0.1,0,0.18,0.08,0.18,0.18V80.41z M60.12,72.3   c0,0.1-0.08,0.18-0.18,0.18h-3.17c-0.1,0-0.18-0.08-0.18-0.18v-3.54c0-0.1,0.08-0.18,0.18-0.18h3.17c0.1,0,0.18,0.08,0.18,0.18   V72.3z"></path>	</g>	<g>		<path class="st1" d="M95.37,93.88c0,0.16-0.13,0.29-0.28,0.29H80.84c-0.16,0-0.29-0.13-0.29-0.29v-2.85   c0-0.16,0.13-0.28,0.29-0.28h14.25c0.16,0,0.28,0.13,0.28,0.28V93.88z"></path>	</g>	<g>		<path class="st1" d="M78.87,71.08c-0.05-0.15-0.18-0.27-0.35-0.27c-0.07,0-0.14,0.03-0.2,0.07c-0.01,0.01-0.02,0.01-0.03,0.02   l-0.12,0.15L64.57,88.31L64.5,88.4c-0.07,0.07-0.12,0.16-0.12,0.27v0.02v21.2c0,0.19,0.15,0.34,0.34,0.34h13.84   c0.19,0,0.34-0.15,0.34-0.34V71.22C78.9,71.17,78.89,71.12,78.87,71.08 M73.14,80.46l0.1-0.12c0.93-1.2,2.5-3.13,3.27-4.07   l0.1-0.12c0.07-0.09,0.18-0.14,0.3-0.14c0.19,0,0.34,0.14,0.38,0.32v0.15v0.12v4.09c0,0.21-0.17,0.38-0.38,0.39   c-0.01,0-0.01,0-0.02,0c-0.01,0-0.01,0-0.02,0h-3.23h-0.17c-0.01,0-0.01,0-0.02,0s-0.01,0-0.02,0c-0.21-0.01-0.38-0.18-0.38-0.39   C73.06,80.6,73.09,80.52,73.14,80.46 M70.98,104.64c0,0.19-0.15,0.34-0.34,0.34h-4.13c-0.19,0-0.34-0.15-0.34-0.34v-2.58   c0-0.19,0.15-0.34,0.34-0.34h4.13c0.19,0,0.34,0.15,0.34,0.34V104.64z M70.98,99.87c0,0.19-0.15,0.34-0.34,0.34h-4.13   c-0.19,0-0.34-0.15-0.34-0.34v-2.58c0-0.19,0.15-0.34,0.34-0.34h4.13c0.19,0,0.34,0.15,0.34,0.34V99.87z M70.98,95.09   c0,0.19-0.15,0.34-0.34,0.34h-4.13c-0.19,0-0.34-0.15-0.34-0.34v-2.59c0-0.19,0.15-0.34,0.34-0.34h4.13   c0.19,0,0.34,0.15,0.34,0.34V95.09z M70.99,84.63v0.12v5.57c0,0.19-0.15,0.34-0.34,0.34h-4.13c-0.19,0-0.34-0.15-0.34-0.34v-0.69   v-0.03c0-0.05,0.01-0.09,0.03-0.13c0.01-0.01,0.01-0.02,0.02-0.04c0.01-0.01,0.02-0.03,0.03-0.04c0.01-0.02,0.03-0.04,0.04-0.05   c0.53-0.76,2.91-3.69,3.91-4.92l0.1-0.12c0.07-0.09,0.18-0.14,0.3-0.14c0.19,0,0.34,0.14,0.38,0.32V84.63z M77.29,104.64   c0,0.19-0.15,0.34-0.34,0.34h-4.13c-0.19,0-0.34-0.15-0.34-0.34v-2.58c0-0.19,0.15-0.34,0.34-0.34h4.13   c0.19,0,0.34,0.15,0.34,0.34V104.64z M77.29,99.87c0,0.19-0.15,0.34-0.34,0.34h-4.13c-0.19,0-0.34-0.15-0.34-0.34v-2.58   c0-0.19,0.15-0.34,0.34-0.34h4.13c0.19,0,0.34,0.15,0.34,0.34V99.87z M77.29,95.09c0,0.19-0.15,0.34-0.34,0.34h-4.13   c-0.19,0-0.34-0.15-0.34-0.34v-2.59c0-0.19,0.15-0.34,0.34-0.34h4.13c0.19,0,0.34,0.15,0.34,0.34V95.09z M77.29,90.32   c0,0.19-0.15,0.34-0.34,0.34h-4.13c-0.19,0-0.34-0.15-0.34-0.34v-2.58c0-0.19,0.15-0.34,0.34-0.34h4.13   c0.19,0,0.34,0.15,0.34,0.34V90.32z M77.29,85.54c0,0.19-0.15,0.34-0.34,0.34h-4.13c-0.19,0-0.34-0.15-0.34-0.34v-2.58   c0-0.19,0.15-0.34,0.34-0.34h4.13c0.19,0,0.34,0.15,0.34,0.34V85.54z"></path>	</g></g><g>	<path class="st1" d="M40.44,28.78v-4.64c0-1.5,0.71-2.59,2.41-2.59c1.78,0,2.28,0.99,2.28,2.41v1.13h-1.47v-1.26  c0-0.59-0.2-0.93-0.78-0.93c-0.58,0-0.82,0.41-0.82,0.99v5.16c0,0.58,0.24,0.99,0.82,0.99c0.58,0,0.78-0.37,0.78-0.93v-1.77h1.47  v1.66c0,1.37-0.57,2.39-2.28,2.39C41.15,31.37,40.44,30.27,40.44,28.78z"></path>	<path class="st1" d="M45.85,21.66h1.61v9.6h-1.61V21.66z"></path>	<path class="st1" d="M53.07,24.24v4.45c0,1.47-0.61,2.58-2.34,2.58h-2.49v-9.6h2.49C52.46,21.66,53.07,22.75,53.07,24.24z   M50.54,29.94c0.67,0,0.92-0.4,0.92-0.98v-5.03c0-0.57-0.25-0.96-0.92-0.96h-0.68v6.97H50.54z"></path>	<path class="st1" d="M53.58,31.26l1.81-9.6h1.84l1.83,9.6h-1.66l-0.3-1.76h-1.71l-0.28,1.76H53.58z M55.61,28.22h1.29l-0.64-3.85  h-0.01L55.61,28.22z"></path>	<path class="st1" d="M64.4,24.24v4.45c0,1.47-0.61,2.58-2.34,2.58h-2.49v-9.6h2.49C63.79,21.66,64.4,22.75,64.4,24.24z   M61.87,29.94c0.67,0,0.92-0.4,0.92-0.98v-5.03c0-0.57-0.25-0.96-0.92-0.96h-0.68v6.97H61.87z"></path>	<path class="st1" d="M65.17,21.66h3.85v1.32h-2.24v2.75h1.6v1.3h-1.6v2.92h2.24v1.32h-3.85V21.66z"></path>	<path class="st1" d="M69.63,29.19V27.9h1.5v1.32c0,0.54,0.24,0.85,0.79,0.85c0.51,0,0.74-0.34,0.74-0.85v-0.37  c0-0.55-0.23-0.89-0.72-1.36l-0.95-0.95c-0.92-0.91-1.35-1.46-1.35-2.56v-0.33c0-1.19,0.69-2.11,2.27-2.11  c1.61,0,2.25,0.79,2.25,2.18v0.78h-1.47v-0.84c0-0.55-0.26-0.82-0.77-0.82c-0.45,0-0.76,0.25-0.76,0.79v0.2  c0,0.54,0.3,0.85,0.76,1.3l1.03,1.02c0.88,0.89,1.3,1.43,1.3,2.49v0.47c0,1.32-0.71,2.25-2.35,2.25  C70.27,31.37,69.63,30.45,69.63,29.19z"></path>	<path class="st1" d="M76.27,21.66h3.85v1.32h-2.24v2.75h1.6v1.3h-1.6v2.92h2.24v1.32h-3.85V21.66z"></path></g><g>	<path class="st1" d="M40.64,40.69v-4.64c0-1.5,0.71-2.59,2.41-2.59c1.78,0,2.28,0.99,2.28,2.41V37h-1.47v-1.26  c0-0.59-0.2-0.93-0.78-0.93c-0.58,0-0.82,0.41-0.82,0.99v5.15c0,0.58,0.24,0.99,0.82,0.99c0.58,0,0.78-0.37,0.78-0.93v-1.77h1.47  v1.66c0,1.37-0.57,2.39-2.28,2.39C41.35,43.28,40.64,42.18,40.64,40.69z"></path>	<path class="st1" d="M46.35,40.69v-4.64c0-1.5,0.74-2.59,2.44-2.59c1.71,0,2.45,1.09,2.45,2.59v4.64c0,1.49-0.74,2.59-2.45,2.59  C47.08,43.28,46.35,42.18,46.35,40.69z M49.62,40.95v-5.15c0-0.58-0.25-0.99-0.84-0.99c-0.57,0-0.82,0.41-0.82,0.99v5.15  c0,0.58,0.25,0.99,0.82,0.99C49.36,41.94,49.62,41.53,49.62,40.95z"></path>	<path class="st1" d="M56.74,36.94H56.7l-1.09,6.23h-0.75l-1.2-6.23h-0.03v6.23h-1.33v-9.6h1.88l1.05,5.41h0.01l0.93-5.41h2.04v9.6  h-1.47V36.94z"></path>	<path class="st1" d="M63.96,33.57v7.26c0,1.49-0.64,2.45-2.28,2.45c-1.7,0-2.41-0.96-2.41-2.45v-7.26h1.61v7.42  c0,0.57,0.23,0.95,0.79,0.95c0.57,0,0.79-0.38,0.79-0.95v-7.42H63.96z"></path>	<path class="st1" d="M66.39,37.14v6.03h-1.36v-9.6h1.59l1.74,5.51v-5.51h1.34v9.6h-1.42L66.39,37.14z"></path>	<path class="st1" d="M70.76,33.57h1.61v9.6h-1.61V33.57z"></path>	<path class="st1" d="M78.27,36.15v4.45c0,1.47-0.61,2.58-2.34,2.58h-2.49v-9.6h2.49C77.66,33.57,78.27,34.66,78.27,36.15z   M75.73,41.85c0.67,0,0.92-0.4,0.92-0.98v-5.03c0-0.57-0.26-0.96-0.92-0.96h-0.68v6.97H75.73z"></path>	<path class="st1" d="M79.08,43.17l1.81-9.6h1.84l1.83,9.6H82.9l-0.3-1.76h-1.71l-0.28,1.76H79.08z M81.1,40.13h1.29l-0.64-3.85  h-0.01L81.1,40.13z"></path>	<path class="st1" d="M90.19,36.15v4.45c0,1.47-0.61,2.58-2.34,2.58h-2.49v-9.6h2.49C89.58,33.57,90.19,34.66,90.19,36.15z   M87.66,41.85c0.67,0,0.92-0.4,0.92-0.98v-5.03c0-0.57-0.26-0.96-0.92-0.96h-0.68v6.97H87.66z"></path>	<path class="st1" d="M91.25,33.57h3.85v1.32h-2.24v2.75h1.6v1.3h-1.6v2.92h2.24v1.32h-3.85V33.57z"></path>	<path class="st1" d="M96.03,41.1v-1.29h1.5v1.32c0,0.54,0.24,0.85,0.79,0.85c0.51,0,0.74-0.34,0.74-0.85v-0.37  c0-0.55-0.23-0.89-0.72-1.36l-0.95-0.95c-0.92-0.91-1.34-1.46-1.34-2.56v-0.33c0-1.19,0.69-2.11,2.27-2.11  c1.61,0,2.25,0.79,2.25,2.18v0.78h-1.47v-0.84c0-0.55-0.26-0.82-0.76-0.82c-0.45,0-0.76,0.25-0.76,0.79v0.2  c0,0.54,0.3,0.85,0.76,1.3l1.03,1.02c0.88,0.89,1.3,1.43,1.3,2.49v0.47c0,1.32-0.71,2.25-2.35,2.25  C96.66,43.28,96.03,42.36,96.03,41.1z"></path></g><g>	<path class="st1" d="M40.55,54.25v-1.29h1.5v1.32c0,0.54,0.24,0.85,0.79,0.85c0.51,0,0.74-0.34,0.74-0.85v-0.37  c0-0.55-0.23-0.89-0.72-1.36l-0.95-0.95c-0.92-0.91-1.35-1.46-1.35-2.56v-0.33c0-1.19,0.69-2.11,2.27-2.11  c1.62,0,2.25,0.79,2.25,2.18v0.78h-1.47v-0.84c0-0.55-0.25-0.82-0.76-0.82c-0.45,0-0.76,0.25-0.76,0.79v0.2  c0,0.54,0.3,0.85,0.76,1.3l1.03,1.02c0.88,0.89,1.3,1.43,1.3,2.49v0.47c0,1.32-0.71,2.25-2.35,2.25  C41.19,56.43,40.55,55.51,40.55,54.25z"></path>	<path class="st1" d="M50.85,46.71v7.26c0,1.49-0.64,2.45-2.28,2.45c-1.7,0-2.41-0.96-2.41-2.45v-7.26h1.61v7.42  c0,0.57,0.23,0.95,0.79,0.95c0.57,0,0.79-0.38,0.79-0.95v-7.42H50.85z"></path>	<path class="st1" d="M51.83,54.25v-1.29h1.5v1.32c0,0.54,0.24,0.85,0.79,0.85c0.51,0,0.74-0.34,0.74-0.85v-0.37  c0-0.55-0.23-0.89-0.72-1.36l-0.95-0.95c-0.92-0.91-1.35-1.46-1.35-2.56v-0.33c0-1.19,0.69-2.11,2.27-2.11  c1.61,0,2.25,0.79,2.25,2.18v0.78h-1.47v-0.84c0-0.55-0.25-0.82-0.76-0.82c-0.45,0-0.76,0.25-0.76,0.79v0.2  c0,0.54,0.3,0.85,0.76,1.3l1.03,1.02c0.88,0.89,1.3,1.43,1.3,2.49v0.47c0,1.32-0.71,2.25-2.35,2.25  C52.46,56.43,51.83,55.51,51.83,54.25z"></path>	<path class="st1" d="M57.25,46.71h4.29v1.32h-1.33v8.28h-1.63v-8.28h-1.33V46.71z"></path>	<path class="st1" d="M62.43,46.71h3.85v1.32h-2.24v2.75h1.6v1.3h-1.6V55h2.24v1.32h-3.85V46.71z"></path>	<path class="st1" d="M68.64,50.28v6.03h-1.36v-9.6h1.59l1.74,5.51v-5.51h1.35v9.6h-1.42L68.64,50.28z"></path>	<path class="st1" d="M72.83,46.71h4.29v1.32h-1.33v8.28h-1.63v-8.28h-1.33V46.71z"></path>	<path class="st1" d="M77.76,56.31l1.81-9.6h1.84l1.83,9.6h-1.66l-0.3-1.76h-1.71l-0.28,1.76H77.76z M81.81,46.03l-2.53,0.33v-0.91  l2.53-0.54V46.03z M79.78,53.27h1.29l-0.64-3.85h-0.01L79.78,53.27z"></path>	<path class="st1" d="M89.21,46.71l-1.83,9.6h-1.76l-1.83-9.6h1.64l1.11,6.7h0.01l1.13-6.7H89.21z"></path>	<path class="st1" d="M90.02,46.71h3.85v1.32h-2.24v2.75h1.6v1.3h-1.6V55h2.24v1.32h-3.85V46.71z"></path>	<path class="st1" d="M94.87,46.71h1.61v9.6h-1.61V46.71z"></path>	<path class="st1" d="M97.47,54.25v-1.29h1.5v1.32c0,0.54,0.24,0.85,0.79,0.85c0.51,0,0.74-0.34,0.74-0.85v-0.37  c0-0.55-0.23-0.89-0.72-1.36l-0.95-0.95c-0.92-0.91-1.35-1.46-1.35-2.56v-0.33c0-1.19,0.69-2.11,2.27-2.11  c1.61,0,2.25,0.79,2.25,2.18v0.78h-1.47v-0.84c0-0.55-0.25-0.82-0.76-0.82c-0.45,0-0.76,0.25-0.76,0.79v0.2  c0,0.54,0.3,0.85,0.76,1.3l1.03,1.02c0.88,0.89,1.3,1.43,1.3,2.49v0.47c0,1.32-0.71,2.25-2.35,2.25S97.47,55.51,97.47,54.25z"></path></g></svg>