<svg xmlns="http://www.w3.org/2000/svg" xmlns:xlink="http://www.w3.org/1999/xlink" id="Camada_1" x="0px" y="0px" viewBox="0 0 128 128" style="enable-background:new 0 0 128 128;" xml:space="preserve"><style type="text/css">	.st0{fill:#2489C2;}	.st1{fill:#FFFFFF;}</style><circle class="st0" cx="63.75" cy="64.38" r="60.82"></circle><g>	<g>		<polygon class="st1" points="26.36,21.95 26.36,46.25 22.27,46.25 22.27,27.65 22.23,27.65 19.37,30.62 19.33,30.62 19.33,26.36    23.09,21.95   "></polygon>	</g>	<g>		<path class="st1" d="M38.8,46.26v-3.94h1.65v-3.19H38.8V21.94h-4.02L27.72,39.8v2.51h7.21v3.94H38.8z M31.31,39.12l3.66-10.01H35   v10.01H31.31z"></path>	</g>	<g>		<g>			<path class="st1" d="M93.54,93.9c-1.41-1.9-10.5-13.5-23.26-13.5c-11.08,0-22.92,10.04-22.92,10.04s-4.45-9.11-13.55-9.98    c-0.05,0-0.11-0.01-0.17-0.01h-0.06c-0.19,0.01-0.37,0.2-0.35,0.36c0.03,0.16,0.14,0.33,0.14,0.33    c1.17,1.95,4.17,7.49,4.17,13.03c0,5.56-3.01,11.11-4.18,13.05l-0.08,0.12c-0.03,0.06-0.06,0.12-0.06,0.19    c0,0.19,0.15,0.34,0.34,0.36l0.1-0.01c0.03,0,0.06,0,0.1-0.01c9.13-0.85,13.6-9.99,13.6-9.99s11.85,10.05,22.92,10.05    c12.75,0,21.85-11.6,23.26-13.5c0.04-0.05,0.07-0.1,0.1-0.13c0.02-0.04,0.03-0.09,0.03-0.14c0-0.05-0.01-0.1-0.03-0.14    C93.61,93.99,93.58,93.95,93.54,93.9 M77.37,95.63c-2.06,0-3.72-1.67-3.72-3.72c0-2.05,1.67-3.72,3.72-3.72    c2.06,0,3.73,1.66,3.73,3.72C81.1,93.96,79.43,95.63,77.37,95.63"></path>		</g>		<g>			<path class="st1" d="M33.51,58.6c-0.03-0.01-0.05-0.02-0.07-0.02c-0.2,0-0.37,0.16-0.37,0.37v2.54c0,0.11,0.04,0.2,0.11,0.26    c6.16,5.35,11.99,0.34,13.34-0.99c0.03-0.04,0.06-0.08,0.1-0.1c0.06-0.04,0.13-0.07,0.2-0.07c0.09,0,0.18,0.04,0.25,0.1    c0.01,0.01,0.01,0.01,0.02,0.02c6.95,6.64,14.25,1.26,15.76,0L63,60.57c0.04-0.02,0.09-0.03,0.14-0.03c0.05,0,0.1,0.01,0.14,0.03    l0.15,0.14c1.52,1.26,8.81,6.64,15.76,0c0,0,0.01-0.01,0.01-0.02c0.07-0.06,0.15-0.1,0.25-0.1c0.07,0,0.14,0.03,0.2,0.07    c0.04,0.02,0.07,0.06,0.1,0.1c1.35,1.32,7.17,6.34,13.33,0.99c0.06-0.06,0.11-0.16,0.11-0.26v-2.54c0-0.21-0.16-0.37-0.36-0.37    c-0.03,0-0.05,0.01-0.08,0.02c-0.06,0.03-0.12,0.06-0.18,0.1c-1.89,0.95-7.77,3.2-13.1-1.84c-0.05-0.05-0.1-0.09-0.16-0.15    c-0.05-0.02-0.1-0.03-0.16-0.03c-0.04,0-0.08,0.01-0.11,0.02c-0.08,0.03-0.14,0.08-0.18,0.14c-1.59,1.21-8.88,6.15-15.38,0.09    l-0.1-0.09c-0.07-0.06-0.16-0.11-0.26-0.11c-0.1,0-0.19,0.05-0.25,0.11l-0.1,0.09c-6.49,6.06-13.79,1.12-15.38-0.09    c-0.04-0.06-0.1-0.11-0.18-0.14c-0.04-0.01-0.08-0.02-0.12-0.02c-0.05,0-0.1,0.01-0.15,0.03c-0.05,0.05-0.1,0.1-0.16,0.15    c-5.33,5.04-11.2,2.79-13.1,1.84C33.64,58.66,33.57,58.63,33.51,58.6"></path>		</g>		<g>			<path class="st1" d="M46.52,70c0.03-0.04,0.06-0.07,0.1-0.1c0.06-0.04,0.13-0.07,0.2-0.07c0.09,0,0.18,0.04,0.25,0.1    c0,0.01,0.01,0.01,0.02,0.02c6.95,6.63,14.25,1.26,15.76,0L63,69.81c0.04-0.02,0.09-0.02,0.14-0.02c0.05,0,0.1,0.01,0.15,0.02    l0.15,0.14c1.52,1.26,8.81,6.63,15.76,0c0,0,0.01-0.01,0.01-0.02c0.07-0.06,0.15-0.1,0.25-0.1c0.08,0,0.15,0.03,0.2,0.07    c0.04,0.03,0.07,0.06,0.1,0.1c1.35,1.33,7.17,6.34,13.33,0.99c0.06-0.07,0.11-0.15,0.11-0.26v-2.55c0-0.2-0.16-0.36-0.36-0.36    c-0.03,0-0.05,0.01-0.08,0.02c-0.06,0.03-0.12,0.06-0.18,0.09c-1.89,0.95-7.77,3.2-13.1-1.84c-0.05-0.05-0.1-0.09-0.16-0.15    c-0.05-0.03-0.1-0.04-0.16-0.04c-0.04,0-0.08,0.01-0.11,0.03c-0.08,0.02-0.14,0.07-0.18,0.14c-1.59,1.21-8.88,6.15-15.38,0.09    l-0.1-0.1c-0.07-0.06-0.16-0.1-0.26-0.1c-0.1,0-0.19,0.04-0.25,0.1l-0.1,0.1c-6.49,6.06-13.79,1.12-15.38-0.09    c-0.04-0.07-0.1-0.12-0.18-0.14c-0.04-0.02-0.08-0.03-0.12-0.03c-0.05,0-0.1,0.01-0.15,0.04c-0.05,0.05-0.1,0.1-0.16,0.15    c-5.33,5.04-11.2,2.79-13.09,1.84c-0.07-0.03-0.13-0.06-0.19-0.09c-0.03,0-0.05-0.02-0.07-0.02c-0.2,0-0.37,0.16-0.37,0.36v2.55    c0,0.1,0.04,0.19,0.11,0.26C39.34,76.34,45.17,71.33,46.52,70"></path>		</g>		<g>			<path class="st1" d="M54.43,21.9l-1.87,9.85h-1.8l-1.88-9.85h1.69l1.13,6.87h0.01l1.16-6.87H54.43z"></path>			<path class="st1" d="M55.13,21.9h1.66v9.85h-1.66V21.9z"></path>			<path class="st1" d="M62.71,24.54v4.56c0,1.51-0.63,2.65-2.4,2.65h-2.56V21.9h2.56C62.09,21.9,62.71,23.02,62.71,24.54z     M60.11,30.4c0.68,0,0.94-0.41,0.94-1v-5.16c0-0.58-0.26-0.99-0.94-0.99h-0.7v7.15H60.11z"></path>			<path class="st1" d="M63.41,31.75l1.86-9.85h1.89l1.88,9.85h-1.7l-0.3-1.8h-1.76l-0.29,1.8H63.41z M65.49,28.63h1.32l-0.65-3.95    h-0.01L65.49,28.63z"></path>			<path class="st1" d="M72.67,25.56v6.19h-1.4V21.9h1.63l1.79,5.65V21.9h1.38v9.85h-1.45L72.67,25.56z"></path>			<path class="st1" d="M76.77,31.75l1.86-9.85h1.89l1.87,9.85h-1.7l-0.31-1.8h-1.76l-0.29,1.8H76.77z M78.85,28.63h1.32l-0.65-3.95    H79.5L78.85,28.63z"></path>		</g>		<g>			<path class="st1" d="M48.85,46.22l1.86-9.85h1.89l1.88,9.85h-1.7l-0.3-1.8h-1.76l-0.29,1.8H48.85z M53,35.66L50.4,36v-0.93    l2.6-0.55V35.66z M50.92,43.09h1.32l-0.65-3.95h-0.01L50.92,43.09z"></path>			<path class="st1" d="M57,40.96h2.35v5.26h-1.19v-1.08c-0.22,0.74-0.68,1.19-1.58,1.19c-1.42,0-2.08-1.13-2.08-2.66v-4.77    c0-1.54,0.74-2.66,2.49-2.66c1.83,0,2.37,1.02,2.37,2.47v0.87h-1.51v-1c0-0.61-0.23-0.96-0.83-0.96s-0.86,0.42-0.86,1.02v5.29    c0,0.6,0.25,1.02,0.81,1.02c0.54,0,0.81-0.31,0.81-0.94v-1.75H57V40.96z"></path>			<path class="st1" d="M64.46,36.36v7.46c0,1.53-0.65,2.51-2.34,2.51c-1.74,0-2.47-0.99-2.47-2.51v-7.46h1.66v7.62    c0,0.58,0.23,0.97,0.81,0.97c0.58,0,0.81-0.39,0.81-0.97v-7.62H64.46z"></path>			<path class="st1" d="M64.49,46.22l1.86-9.85h1.89l1.88,9.85h-1.7l-0.31-1.8h-1.76l-0.29,1.8H64.49z M66.57,43.09h1.32l-0.65-3.95    h-0.01L66.57,43.09z"></path>		</g>	</g></g></svg>